<svg width="102" height="113" viewBox="0 0 102 113" fill="none" xmlns="http://www.w3.org/2000/svg">
<ellipse cx="50.605" cy="54.3883" rx="50.605" ry="50.3883" fill="#B99619"/>
<path d="M44.3915 82C42.7275 82 41.1275 81.936 39.5915 81.808C38.1195 81.68 36.9035 81.296 35.9435 80.656C34.9835 79.952 34.5035 78.704 34.5035 76.912C34.5035 76.592 34.5035 76.272 34.5035 75.952C34.5675 75.568 34.6315 75.184 34.6955 74.8C35.0795 72.944 35.8795 70.384 37.0955 67.12C38.3115 63.792 39.7835 60.208 41.5115 56.368C43.2395 52.528 44.9995 48.88 46.7915 45.424C44.9995 46.768 43.2075 48.208 41.4155 49.744C39.6235 51.28 37.6075 53.008 35.3675 54.928C35.1755 55.12 34.9515 55.216 34.6955 55.216C34.3755 55.216 34.0875 55.024 33.8315 54.64C33.6395 54.256 33.5435 53.84 33.5435 53.392C33.5435 52.624 33.7995 52.016 34.3115 51.568C39.1115 47.472 42.9515 44.08 45.8315 41.392C48.7755 38.704 51.2075 36.304 53.1275 34.192C54.6635 32.528 56.2635 31.312 57.9275 30.544C59.5915 29.776 61.6075 29.392 63.9755 29.392C65.5755 29.392 67.4315 29.584 69.5435 29.968C70.3755 30.16 70.7915 30.416 70.7915 30.736C70.7915 31.056 70.4075 31.504 69.6395 32.08C68.6155 32.784 67.3355 34.192 65.7995 36.304C64.3275 38.352 62.7275 40.88 60.9995 43.888C59.2715 46.832 57.5115 50.064 55.7195 53.584C53.9915 57.04 52.3595 60.528 50.8235 64.048C49.2875 67.568 47.9435 70.896 46.7915 74.032C45.7035 77.104 44.9035 79.76 44.3915 82Z" fill="white"/>
</svg>
