<svg width="102" height="113" viewBox="0 0 102 113" fill="none" xmlns="http://www.w3.org/2000/svg">
<ellipse cx="50.605" cy="54.3883" rx="50.605" ry="50.3883" fill="#B99619"/>
<path d="M59.2064 82.768C58.9504 82.448 57.8624 82.224 55.9424 82.096C54.0864 82.032 51.7504 82 48.9344 82H30.0224C29.1904 82 28.7744 81.424 28.7744 80.272C28.7744 79.184 29.1264 77.936 29.8304 76.528C30.5344 75.056 31.3984 73.936 32.4224 73.168C35.0464 71.248 37.9264 68.944 41.0624 66.256C44.1984 63.504 47.1744 60.56 49.9904 57.424C52.8704 54.224 55.2064 50.992 56.9984 47.728C58.8544 44.464 59.7824 41.36 59.7824 38.416C59.7824 37.2 59.5264 36.336 59.0144 35.824C58.5024 35.312 57.8624 35.056 57.0944 35.056C55.8144 35.056 54.3744 35.6 52.7744 36.688C51.1744 37.712 49.9584 38.864 49.1264 40.144C48.1664 41.616 47.4304 42.832 46.9184 43.792C46.4704 44.688 45.9904 45.36 45.4784 45.808C45.0304 46.256 44.3264 46.48 43.3664 46.48C42.7264 46.48 42.1824 46.224 41.7344 45.712C41.2864 45.2 41.0624 44.528 41.0624 43.696C41.0624 42.928 41.2864 42.064 41.7344 41.104C42.1824 40.144 42.9184 39.152 43.9424 38.128C46.3744 35.632 49.0304 33.552 51.9104 31.888C54.8544 30.16 58.0864 29.296 61.6064 29.296C65.3824 29.296 68.0384 30.128 69.5744 31.792C71.1104 33.456 71.8784 35.504 71.8784 37.936C71.8784 40.944 70.9824 43.984 69.1904 47.056C67.4624 50.064 65.1904 52.976 62.3744 55.792C59.6224 58.608 56.6464 61.264 53.4464 63.76C50.3104 66.256 47.3024 68.464 44.4224 70.384C41.5424 72.304 39.1744 73.84 37.3184 74.992C38.6624 74.48 40.1984 74.032 41.9264 73.648C43.7184 73.264 45.4784 72.976 47.2064 72.784C48.9984 72.592 50.5024 72.496 51.7184 72.496C54.4064 72.496 56.6144 72.976 58.3424 73.936C60.1344 74.896 61.0304 76.496 61.0304 78.736C61.0304 79.76 60.8384 80.912 60.4544 82.192C60.3904 82.576 60.1984 82.8 59.8784 82.864C59.5584 82.992 59.3344 82.96 59.2064 82.768Z" fill="white"/>
</svg>
