<svg width="102" height="113" viewBox="0 0 102 113" fill="none" xmlns="http://www.w3.org/2000/svg">
<ellipse cx="50.605" cy="54.3883" rx="50.605" ry="50.3883" fill="#B99619"/>
<path d="M42.3175 82.864C40.0135 82.864 37.8055 82.576 35.6935 82C33.5815 81.36 31.8535 80.368 30.5095 79.024C29.2295 77.68 28.5895 75.888 28.5895 73.648C28.5895 71.088 29.1335 69.04 30.2215 67.504C31.3095 65.904 32.6535 64.816 34.2535 64.24C34.4455 64.112 34.6375 64.048 34.8295 64.048C35.0855 64.048 35.3095 64.048 35.5015 64.048C36.2055 64.048 36.7495 64.208 37.1335 64.528C37.5815 64.848 37.6455 65.2 37.3255 65.584C36.8135 66.288 36.2375 67.408 35.5975 68.944C34.9575 70.416 34.6375 71.888 34.6375 73.36C34.6375 74.512 34.8935 75.504 35.4055 76.336C35.9815 77.168 36.9735 77.68 38.3815 77.872C39.7895 78 41.2615 77.616 42.7975 76.72C44.3335 75.824 45.8055 74.576 47.2135 72.976C48.6855 71.376 49.9975 69.648 51.1495 67.792C52.3655 65.936 53.3255 64.144 54.0295 62.416C54.7335 60.688 55.0855 59.216 55.0855 58C55.0855 56.592 54.7335 55.632 54.0295 55.12C53.3895 54.608 52.6215 54.352 51.7255 54.352C50.7015 54.352 49.6135 54.544 48.4615 54.928C47.3095 55.312 46.4775 55.6 45.9655 55.792C45.7095 55.856 45.4535 55.92 45.1975 55.984C45.0055 55.984 44.8135 55.984 44.6215 55.984C43.9175 55.984 43.3735 55.792 42.9895 55.408C42.6055 55.024 42.4135 54.608 42.4135 54.16C42.4135 53.584 42.6695 53.008 43.1815 52.432C43.6935 51.856 44.4615 51.536 45.4855 51.472C47.0215 51.344 48.6535 50.736 50.3815 49.648C52.1095 48.496 53.7095 47.216 55.1815 45.808C56.6535 44.4 57.8055 43.216 58.6375 42.256C59.2135 41.68 59.8215 40.816 60.4615 39.664C61.1655 38.512 61.5175 37.424 61.5175 36.4C61.5175 35.696 61.2935 35.12 60.8455 34.672C60.3975 34.224 59.5655 34 58.3495 34C56.8775 34 55.3735 34.416 53.8375 35.248C52.3655 36.08 50.9895 37.104 49.7095 38.32C48.4295 39.472 47.3095 40.624 46.3495 41.776C45.4535 42.864 44.8455 43.664 44.5255 44.176C43.8215 45.264 42.9895 45.808 42.0295 45.808C41.3895 45.808 40.8135 45.52 40.3015 44.944C39.8535 44.304 39.6295 43.536 39.6295 42.64C39.6295 41.936 39.7895 41.2 40.1095 40.432C40.4295 39.664 40.9415 38.896 41.6455 38.128C44.6535 34.928 47.6295 32.656 50.5735 31.312C53.5815 29.904 56.5895 29.2 59.5975 29.2C63.5655 29.2 66.5735 29.936 68.6215 31.408C70.6695 32.88 71.6935 34.704 71.6935 36.88C71.6935 39.184 70.6695 41.552 68.6215 43.984C67.0855 45.904 65.2295 47.664 63.0535 49.264C60.9415 50.864 59.0535 52.144 57.3895 53.104C57.6455 53.104 57.8695 53.104 58.0615 53.104C58.3175 53.04 58.5735 53.008 58.8295 53.008C61.4535 53.008 63.3415 53.68 64.4935 55.024C65.7095 56.368 66.3175 58.064 66.3175 60.112C66.3175 61.904 65.9335 63.856 65.1655 65.968C64.3975 68.08 63.3095 70.16 61.9015 72.208C60.5575 74.192 58.9895 75.984 57.1975 77.584C55.4695 79.184 53.6455 80.4 51.7255 81.232C49.0375 82.32 45.9015 82.864 42.3175 82.864Z" fill="white"/>
</svg>
